REM MD5 a709eaa6a233f38280172fd24947f5eb
FILE "Euro Demo 15 (France).bin" BINARY
  TRACK 01 MODE2/2352
    INDEX 01 00:00:00
  TRACK 02 AUDIO
    INDEX 00 11:35:64
    INDEX 01 11:37:64
  TRACK 03 AUDIO
    INDEX 00 15:40:07
    INDEX 01 15:42:07
REM LEADOUT 18:59:37
